# xmcd
#
# Track frame offsets: 
#        150
#        16510
#        37152
#        49695
#        77560
#        94805
#        110152
#        128957
#        150860
#        170127
#        191175
#        210450
#
# Disc length: 2906 seconds
#
# Revision: 1
# Processed by: cddbd v1.5.2PL0 Copyright (c) Steve Scherf et al.
# Submitted via: ExactAudioCopy v1.3
#
DISCID=9a0b580c
DTITLE=MC Breed - Big Baller
DYEAR=1995
DGENRE=Hip-Hop
TTITLE0=Intro (feat. Jazze Pha)
TTITLE1=SFNU
TTITLE2=Game For Life
TTITLE3=Sea Of Bud (feat. Jibri and Too Short)
TTITLE4=Real MC (feat. Hurricane)
TTITLE5=Some Otha
TTITLE6=Say What
TTITLE7=What Do You Get (feat. Jibri)
TTITLE8=You Slippin' (feat. Joe Riz)
TTITLE9=Nightlife (feat. Jibri and Kool-Ace)
TTITLE10=Been Round For Years
TTITLE11=Outro (feat. Jazze Pha)
EXTD=
EXTT0=
EXTT1=
EXTT2=
EXTT3=
EXTT4=
EXTT5=
EXTT6=
EXTT7=
EXTT8=
EXTT9=
EXTT10=
EXTT11=
PLAYORDER=
